<?xml version="1.0" encoding="UTF-8"?>
<svg id="Layer_1" data-name="Layer 1" xmlns="http://www.w3.org/2000/svg" viewBox="0 0 1128 49.38">
  <defs>
    <style>
      .cls-1 {
        fill: #fff;
      }
    </style>
  </defs>
  <path class="cls-1" d="M2,10.38s21,1,23,11,14,19,14,19c0,0,25-3,22-16s10-21,16-15,17,32,24,31,44-9,50-14,15-14,33-2,3,23,33,15,28-6,53-15,27-29,50-9,5,24,32,26,15,15,31-1,37-37,80-25,110,24,120,19-6,4,24-13-4-27,38-18,71,18,95,20,94,1,122-8,9-24,42-7,7,24,48,20,47-4,69-13,34-18,57-12,32,10,34,11,16,1,16,1l-1,34H0L2,10.38Z"/>
</svg>