<?xml version="1.0" encoding="UTF-8"?>
<svg id="Layer_1" data-name="Layer 1" xmlns="http://www.w3.org/2000/svg" viewBox="0 0 177.99 503.97" preserveAspectRatio="none"><defs>
    <style>
      .cls-1 {
        fill: #cad7d4;
      }

      .cls-1, .cls-2, .cls-3, .cls-4, .cls-5, .cls-6, .cls-7, .cls-8, .cls-9, .cls-10, .cls-11, .cls-12, .cls-13 {
        stroke: #000;
      }

      .cls-1, .cls-3, .cls-5, .cls-14, .cls-7, .cls-9, .cls-10, .cls-11, .cls-12, .cls-13 {
        stroke-miterlimit: 10;
      }

      .cls-1, .cls-11 {
        stroke-width: 2px;
      }

      .cls-15 {
        fill: #26070a;
      }

      .cls-2 {
        stroke-width: 3.36px;
      }

      .cls-2, .cls-3, .cls-4, .cls-5, .cls-6, .cls-14, .cls-16, .cls-7, .cls-8, .cls-12, .cls-13 {
        isolation: isolate;
      }

      .cls-2, .cls-3, .cls-4, .cls-5, .cls-6, .cls-14, .cls-17, .cls-7, .cls-8, .cls-12, .cls-13 {
        fill: #fff;
      }

      .cls-2, .cls-3, .cls-4, .cls-5, .cls-6, .cls-14, .cls-7, .cls-8, .cls-12, .cls-13 {
        mix-blend-mode: lighten;
        opacity: .28;
      }

      .cls-2, .cls-6, .cls-8 {
        stroke-miterlimit: 10;
      }

      .cls-3 {
        stroke-width: 2.43px;
      }

      .cls-4 {
        stroke-miterlimit: 10;
        stroke-width: 3.08px;
      }

      .cls-5 {
        stroke-width: 2.97px;
      }

      .cls-6 {
        stroke-width: 2.39px;
      }

      .cls-14 {
        stroke: #fff;
      }

      .cls-14, .cls-9 {
        stroke-width: 1.89px;
      }

      .cls-18 {
        fill: #ab4654;
      }

      .cls-19 {
        fill: #c4e0e0;
      }

      .cls-7 {
        stroke-width: 2.16px;
      }

      .cls-8 {
        stroke-width: 2.27px;
      }

      .cls-9, .cls-10, .cls-11 {
        fill: none;
      }

      .cls-20 {
        fill: #0b0b08;
      }

      .cls-21 {
        fill: #42b9c6;
      }

      .cls-12 {
        stroke-width: 1.52px;
      }

      .cls-13 {
        stroke-width: 1.62px;
      }
    </style>
  </defs>
  <g class="cls-16">
    <g id="Layer_2" data-name="Layer 2">
      <path class="cls-1" d="M145.99,6.95s11-2,12-1,3,1,3,3,8,186,8,186c0,0,8,144,8,155v121h-8"/>
    </g>
    <g id="Layer_3" data-name="Layer 3">
      <path class="cls-21" d="M168.97,502.45s-9-210.33-9-221.33-6-131-6-131c0,0-5.55-74.6-5.55-109.59s-2.68-33.99-5.36-36.99S23.33,14.54,15.29,22.54c-8.04,8-4.47,23-4.47,25s-1.79,59.99-6.25,67.99C.1,123.53,1,197.52,1,197.52l2.68,290.95-.45,15.5,165.74-1.5v-.02Z"/>
      <path class="cls-9" d="M168.99,501.28s-9-210.33-9-221.33-6-131-6-131c0,0-5.55-74.6-5.55-109.59s-2.68-33.99-5.36-36.99S23.35,13.37,15.31,21.37c-8.04,8-4.47,23-4.47,25s-1.79,59.99-6.25,67.99C.12,122.36,1.02,196.35,1.02,196.35l2.68,290.95-.45,15.5,165.74-1.5v-.02Z"/>
      <path class="cls-14" d="M168.99,499.45l-13.86.13c-.49-9.95-10.7-217.36-10.7-227.21s-1.79-121.78-1.79-121.78c1.27,1.16-1.75-67.42-5.36-102.81-3.25-31.89-3.66-32.94-7.15-32.94-2.68,0-98.91,8.63-106.29,15.97-7.39,7.34-5.05,23.1-5.05,24.93s-6.49,50.48-6.57,60.91c-.06,8.65-2.47,76.65-2.47,76.65l2.47,266.86v40.71l-8.93.08.45-15.47L1.06,195.01S.17,121.15,4.63,113.16c4.47-7.99,6.25-65.88,6.25-67.88s-3.57-16.97,4.47-24.95S140.4-1.63,143.08,1.36c2.68,2.99,5.36,2,5.36,36.93s6.25,106.8,6.25,106.8c0,0,6.25,123.77,6.25,134.75s8.04,219.6,8.04,219.6h0Z"/>
    </g>
    <g id="Layer_5" data-name="Layer 5">
      <circle class="cls-5" cx="35.49" cy="168.45" r="5.5"/>
      <circle class="cls-5" cx="60.99" cy="189.95" r="5.5"/>
      <ellipse class="cls-4" cx="116.51" cy="189.91" rx="5" ry="6.5" transform="translate(-85.81 96.59) rotate(-33.71)"/>
      <circle class="cls-5" cx="114.99" cy="172.95" r="5.5"/>
      <circle class="cls-5" cx="114.99" cy="162.95" r="5.5"/>
      <circle class="cls-5" cx="119.99" cy="166.95" r="5.5"/>
      <circle class="cls-7" cx="27.49" cy="175.45" r="4"/>
      <circle class="cls-7" cx="36.49" cy="162.45" r="4"/>
      <circle class="cls-3" cx="83.99" cy="208.95" r="4.5"/>
      <circle class="cls-12" cx="96.18" cy="184.63" r="2.82"/>
      <circle class="cls-13" cx="39.49" cy="46.45" r="3"/>
      <circle class="cls-13" cx="45.99" cy="47.95" r="3"/>
      <circle class="cls-13" cx="30.99" cy="52.95" r="3"/>
      <circle class="cls-13" cx="61.99" cy="31.95" r="3"/>
      <circle class="cls-13" cx="65.99" cy="32.95" r="3"/>
      <ellipse class="cls-2" cx="67.88" cy="38.49" rx="6.15" ry="6.3" transform="translate(-9.53 28.69) rotate(-22.34)"/>
      <ellipse class="cls-6" cx="94.02" cy="38.64" rx="4.39" ry="4.49" transform="translate(-7.63 38.64) rotate(-22.34)"/>
      <ellipse class="cls-8" cx="114.61" cy="30.9" rx="2.81" ry="6.3" transform="translate(-3.14 45.88) rotate(-22.34)"/>
    </g>
    <g id="Layer_6" data-name="Layer 6">
      <path class="cls-15" d="M22.99,105.95s-6,18,2,30,35.88,24,53,24c5,0,32,0,39-4,5.49-3.14,9-7,10-11s6-27,0-38-13-15-37-10-61,3-67,9Z"/>
      <path class="cls-18" d="M36.99,144.95s22-14,45-6c1.89.66,5,6,5,6,0,0,8.09-3.67,11-4,6.33-.73,25,3,25,5s-1,6-3,7-23,7-39,6-38-7-44-14Z"/>
      <ellipse class="cls-17" cx="50.79" cy="88.48" rx="30.75" ry="31.75"/>
      <path class="cls-19" d="M22.99,81.95s4,13,18,16,17,3,21,1,18-14,18-14c0,0-.64,17.72-2.32,20.36s-9.01,13.5-18.84,14.07-16.24,1.88-25.04-4.78-14.53-17.55-13.16-23.1,1.29-11.23,1.29-11.23l1.07,1.68Z"/>
      <ellipse class="cls-11" cx="51.24" cy="88.2" rx="30.75" ry="31.75"/>
      <ellipse class="cls-20" cx="62.99" cy="76.94" rx="6" ry="5" transform="translate(-35.96 67.08) rotate(-45)"/>
      <ellipse class="cls-17" cx="100.5" cy="75.89" rx="27.25" ry="26.5"/>
      <path class="cls-19" d="M90.99,89.95s7,1,12-2,11-11,11-11c0,0,3-2,6-1s6,3,5,6-4,12-7,14-3,6-14,7c-8.03.73-15.8-2.32-20-6s-5.8-6.61-5.8-6.61l-2.2-8.39s12,7,15,8Z"/>
      <ellipse class="cls-10" cx="100.74" cy="76.45" rx="27.25" ry="26.5"/>
      <ellipse class="cls-20" cx="87.48" cy="76.97" rx="5.5" ry="6" transform="translate(-28.56 66.34) rotate(-36.11)"/>
    </g>
  </g>
</svg>